# xmcd
#
# Track frame offsets: 
#        150
#        2066
#        11567
#        31385
#        48625
#        59269
#        75444
#        86951
#        100465
#        122909
#        139007
#        159870
#
# Disc length: 2319 seconds
#
# Revision: 0
# Processed by: cddbd v1.4b42PL1 Copyright (c) Steve Scherf et al.
# Submitted via: ExactAudioCopy v0.90a11
#
DISCID=94090d0c
DTITLE=J.J. Cale - Mountain Stage - Charleston, WV - 09.26.96
DYEAR=1900
DGENRE=
TTITLE0=Intro
TTITLE1=Christine Lakeland-I've Been Busy
TTITLE2=Christine Lakeland-I Feel Like The Blues
TTITLE3=Ride With Me
TTITLE4=Low Down
TTITLE5=Crazy Mama
TTITLE6=Devil In Disguise
TTITLE7=Ain't Love Funny
TTITLE8=After Midnight
TTITLE9=Tijuana
TTITLE10=Cocaine
TTITLE11=Various-Stand Up
EXTD=
EXTT0=
EXTT1=
EXTT2=
EXTT3=
EXTT4=
EXTT5=
EXTT6=
EXTT7=
EXTT8=
EXTT9=
EXTT10=
EXTT11=
PLAYORDER=
